<?xml version="1.0" encoding="utf-8"?>
<svg width="24" height="24" viewBox="-2 0 24 24" preserveAspectRatio="xMinYMid meet" overflow="visible" xmlns="http://www.w3.org/2000/svg">
  <defs>
    <pattern id="pattern-0" x="0" y="0" width="25" height="25" patternUnits="userSpaceOnUse" viewBox="0 0 100 100">
      <rect x="0" y="0" width="50" height="100" style="fill: black;"/>
    </pattern>
  </defs>
  <linearGradient id="a" gradientUnits="userSpaceOnUse" x1="9.999" x2="9.999" y2="24" gradientTransform="matrix(1, 0, 0, 1, 0.121365, -0.001917)">
    <stop offset="0" stop-color="#95BFF8"/>
    <stop offset="0.557" stop-color="#84ADEF"/>
    <stop offset="1" stop-color="#7CA4EB"/>
  </linearGradient>
  <linearGradient id="b" gradientUnits="userSpaceOnUse" x1="9.999" y1="1" x2="9.999" y2="23" gradientTransform="matrix(1, 0, 0, 1, -0.040858, -0.083029)">
    <stop offset="0" stop-color="#E7F4FC"/>
    <stop offset="1" stop-color="#DEEFFC"/>
  </linearGradient>
  <linearGradient id="c" gradientUnits="userSpaceOnUse" x1="9.999" y1="2" x2="9.999" y2="22" gradientTransform="matrix(1, 0, 0, 1, -0.040858, 0.079194)">
    <stop offset="0" stop-color="#CEE9F9"/>
    <stop offset="1" stop-color="#BBDFF8"/>
  </linearGradient>
  <linearGradient id="h" gradientUnits="userSpaceOnUse" x1="15.245" x2="15.245" y2="9.359" gradientTransform="matrix(1, 0, 0, 1, -0.040859, 0.079194)">
    <stop offset="0" stop-color="#95BFF8"/>
    <stop offset="0.557" stop-color="#84ADEF"/>
    <stop offset="1" stop-color="#7CA4EB"/>
  </linearGradient>
  <linearGradient id="i" gradientUnits="userSpaceOnUse" x1="12.322" y1="7.545" x2="15.45" y2="4.417" gradientTransform="matrix(1, 0, 0, 1, -0.040863, 0.079197)">
    <stop offset="0" stop-color="#E7F4FC"/>
    <stop offset="0.518" stop-color="#E5F3FC"/>
    <stop offset="0.705" stop-color="#DEF0FB"/>
    <stop offset="0.837" stop-color="#D3EBFA"/>
    <stop offset="0.872" stop-color="#CEE9F9"/>
    <stop offset="1" stop-color="#BDD8F0"/>
  </linearGradient>
  <path fill="url(#a)" d="M 12.621 -0.002 L 0.121 -0.002 L 0.121 23.998 L 20.121 23.998 L 20.121 7.898"/>
  <path fill="url(#b)" d="M 12.059 0.917 L 0.959 0.917 L 0.959 22.917 L 18.959 22.917 L 18.959 8.217"/>
  <path fill="url(#c)" d="M 11.559 2.079 L 1.959 2.079 L 1.959 22.079 L 17.959 22.079 L 17.959 8.779"/>
  <path d="M 10.959 9.079 C 10.959 9.079 16.159 7.579 19.959 9.479 L 19.959 7.979 L 12.459 0.079 L 10.459 0.079 C 13.059 3.779 10.959 9.079 10.959 9.079 Z" fill="url(#h)"/>
  <path d="M 18.459 7.879 C 17.559 7.679 16.459 7.579 15.359 7.579 C 14.259 7.579 13.259 7.679 12.359 7.879 C 12.759 6.279 13.059 3.779 12.159 1.479 L 18.459 7.879 Z" fill="url(#i)"/>
  <path fill="currentColor" d="M 11.021 11.392 L 4.646 11.392 C 4.063 11.392 3.59 11.865 3.59 12.448 L 3.59 18.823 C 3.59 19.407 4.063 19.879 4.646 19.879 L 11.021 19.879 C 11.605 19.879 12.077 19.407 12.077 18.823 L 12.077 12.448 C 12.077 11.865 11.605 11.392 11.021 11.392 Z M 15.207 12.225 L 12.784 13.896 L 12.784 17.376 L 15.207 19.044 C 15.675 19.367 16.321 19.038 16.321 18.474 L 16.321 12.795 C 16.321 12.235 15.678 11.903 15.207 12.225 Z"/>
</svg>